# xmcd
#
# Track frame offsets:
#	150
#	16400
#	30935
#	52215
#	66525
#	83190
#	93417
#	107197
#	127595
#	140130
#	154580
#	171660
#	191097
#	206772
#	220295
#	236075
#
# Disc length: 3416 seconds
#
# Revision: 1
# Processed by: cddbd v1.5.1PL2 Copyright (c) Steve Scherf et al.
# Submitted via: EasyCDDAExtractor 9.0.0.1
#
DISCID=ee0d5610
DTITLE=Curley Bridges - Keys To The Blues
DYEAR=1998
DGENRE=Blues
TTITLE0=You Talk Too Much
TTITLE1=Rock Me, Baby
TTITLE2=Thank You, Pretty Baby
TTITLE3=I'm Tore Down
TTITLE4=Since I Met You, Baby
TTITLE5=Honey Hush
TTITLE6=Early In The Morning
TTITLE7=Summertime
TTITLE8=Everyday I Have The Blues
TTITLE9=Stagger Lee
TTITLE10=Every Beat Of My Heart
TTITLE11=Walkin' The Dog
TTITLE12=I Hear You Knockin' 
TTITLE13=Reconsider Baby
TTITLE14=Good Rockin' Tonight
TTITLE15=Three O'Clock Blues
EXTD=YEAR: 1998
EXTT0=
EXTT1=
EXTT2=
EXTT3=
EXTT4=
EXTT5=
EXTT6=
EXTT7=
EXTT8=
EXTT9=
EXTT10=
EXTT11=
EXTT12=
EXTT13=
EXTT14=
EXTT15=
PLAYORDER=
